<svg id="Layer_1" height="512" viewBox="0 0 75 75" width="512" xmlns="http://www.w3.org/2000/svg" data-name="Layer 1"><path d="m61.5 19.633v27.916a2.7 2.7 0 0 1 -2.7 2.7h-26.708l-13.449 7.805v-7.8h-2.443a2.7 2.7 0 0 1 -2.7-2.7v-27.921a2.689 2.689 0 0 1 2.7-2.687h42.6a2.689 2.689 0 0 1 2.7 2.687z" fill="#ededed"/><path d="m61.5 19.637v27.91a2.7 2.7 0 0 1 -2.7 2.7h-.3v-27.48a2.693 2.693 0 0 0 -2.7-2.69h-42.3v-.44a2.693 2.693 0 0 1 2.7-2.69h42.6a2.693 2.693 0 0 1 2.7 2.69z" fill="#dbd8dd"/><circle cx="30.079" cy="33.557" fill="#b2b2b6" r="2.793"/><path d="m30.079 37.1a3.544 3.544 0 1 1 3.543-3.543 3.547 3.547 0 0 1 -3.543 3.543zm0-5.587a2.044 2.044 0 1 0 2.043 2.044 2.046 2.046 0 0 0 -2.043-2.043z" fill="#556065"/><circle cx="45.207" cy="27.426" fill="#b2b2b6" r="2.793"/><path d="m45.208 30.969a3.544 3.544 0 1 1 3.542-3.543 3.547 3.547 0 0 1 -3.542 3.543zm0-5.587a2.044 2.044 0 1 0 2.042 2.044 2.046 2.046 0 0 0 -2.042-2.044z" fill="#556065"/><circle cx="45.207" cy="39.689" fill="#b2b2b6" r="2.793"/><g fill="#556065"><path d="m45.208 43.232a3.543 3.543 0 1 1 3.542-3.543 3.547 3.547 0 0 1 -3.542 3.543zm0-5.586a2.043 2.043 0 1 0 2.042 2.043 2.046 2.046 0 0 0 -2.042-2.043z"/><path d="m32.6 33.081a.75.75 0 0 1 -.287-1.443l9.941-4.107a.75.75 0 1 1 .572 1.386l-9.941 4.107a.736.736 0 0 1 -.285.057z"/><path d="m42.543 39.641a.736.736 0 0 1 -.285-.057l-9.941-4.107a.75.75 0 0 1 .572-1.387l9.941 4.11a.75.75 0 0 1 -.287 1.444z"/><path d="m18.643 58.8a.749.749 0 0 1 -.75-.75v-7.05h-1.693a3.454 3.454 0 0 1 -3.45-3.45v-27.917a3.447 3.447 0 0 1 3.45-3.433h42.6a3.448 3.448 0 0 1 3.451 3.437v27.912a3.455 3.455 0 0 1 -3.451 3.451h-26.506l-13.275 7.7a.755.755 0 0 1 -.376.1zm-2.443-41.1a1.946 1.946 0 0 0 -1.95 1.937v27.912a1.953 1.953 0 0 0 1.95 1.951h2.443a.75.75 0 0 1 .75.75v6.5l12.323-7.15a.751.751 0 0 1 .376-.1h26.708a1.953 1.953 0 0 0 1.951-1.95v-27.917a1.946 1.946 0 0 0 -1.951-1.933z"/></g></svg>